# xmcd
#
# Track frame offsets:
#	150
#	20492
#	40891
#	60527
#	98372
#	129824
#	151065
#	181424
#
# Disc length: 2635 seconds
#
# Revision: 0
# Processed by: cddbd v1.4PL0 Copyright (c) Steve Scherf et al.
# Submitted via: EasyCDDAExtractor 5.0.0.0
#
DISCID=520a4908
DTITLE=Loreena McKennitt - Parallel dreams
DYEAR=1989
DGENRE=Celtic
TTITLE0=Samain Night
TTITLE1=Moon Cradle
TTITLE2=Hurone Beltane Fire Dance
TTITLE3=Annachie Gordon
TTITLE4=Standing Stones
TTITLE5=Dickens Dublin
TTITLE6=Breaking The Silence
TTITLE7=Ancient Pines
EXTD=
EXTT0=
EXTT1=
EXTT2=
EXTT3=
EXTT4=
EXTT5=
EXTT6=
EXTT7=
PLAYORDER=
